<?xml version="1.0" encoding="UTF-8" standalone="no"?>
<svg
   width="213px"
   height="74px"
   viewBox="0 0 213 74"
   version="1.1"
   id="svg1"
   sodipodi:docname="Hamburg_Commercial_Bank_Logo_2019.svg"
   inkscape:version="1.4 (86a8ad7, 2024-10-11)"
   xmlns:inkscape="http://www.inkscape.org/namespaces/inkscape"
   xmlns:sodipodi="http://sodipodi.sourceforge.net/DTD/sodipodi-0.dtd"
   xmlns:xlink="http://www.w3.org/1999/xlink"
   xmlns="http://www.w3.org/2000/svg"
   xmlns:svg="http://www.w3.org/2000/svg">
  <sodipodi:namedview
     id="namedview1"
     pagecolor="#ffffff"
     bordercolor="#000000"
     borderopacity="0.25"
     inkscape:showpageshadow="2"
     inkscape:pageopacity="0.0"
     inkscape:pagecheckerboard="0"
     inkscape:deskcolor="#d1d1d1"
     inkscape:zoom="11.87"
     inkscape:cx="106.52906"
     inkscape:cy="36.983993"
     inkscape:window-width="3590"
     inkscape:window-height="1553"
     inkscape:window-x="2953"
     inkscape:window-y="129"
     inkscape:window-maximized="0"
     inkscape:current-layer="CONTENT-Desktop" />
  <!-- Generator: sketchtool 52.5 (67469) - http://www.bohemiancoding.com/sketch -->
  <title
     id="title1">0AADB31B-2608-4E65-8A19-85D2F731390D</title>
  <desc
     id="desc1">Created with sketchtool.</desc>
  <defs
     id="defs1">
    <polygon
       id="path-1"
       points="0 73.7167071 212.57475 73.7167071 212.57475 0 0 0" />
    <mask
       id="mask-2"
       fill="#ffffff">
      <use
         xlink:href="#path-1"
         id="use1" />
    </mask>
  </defs>
  <g
     id="CONTENT-Desktop"
     transform="translate(-154,-55)"
     style="fill:none;fill-rule:evenodd;stroke:none;stroke-width:1">
    <path
       d="m 252.64803,95.36685 c -3.93076,0 -7.14976,-3.090808 -7.14976,-6.851353 0,-3.757556 3.219,-6.848364 7.14976,-6.848364 3.318,0 6.12375,2.184869 6.8925,5.138142 h -2.94151 c -0.67274,-1.515879 -2.1735,-2.580283 -3.95099,-2.580283 -2.37076,0 -4.28551,1.927737 -4.28551,4.290505 0,2.362768 1.91475,4.292747 4.28551,4.292747 1.77749,0 3.29774,-1.063656 3.95099,-2.578787 h 2.96176 c -0.789,2.931595 -3.59475,5.137393 -6.91275,5.137393"
       id="Fill-1"
       fill="#1d1d1b"
       style="fill:#ffffff;fill-opacity:1" />
    <path
       d="m 261.30085,90.268848 c 0,-2.794808 2.45025,-5.078343 5.4525,-5.078343 3.00225,0 5.451,2.283535 5.451,5.078343 0,2.794809 -2.44875,5.096283 -5.451,5.096283 -3.00225,0 -5.4525,-2.301474 -5.4525,-5.096283 m 8.1765,0 c 0,-1.477757 -1.2435,-2.697636 -2.724,-2.697636 -1.48275,0 -2.727,1.219879 -2.727,2.697636 0,1.495697 1.24425,2.715576 2.727,2.715576 1.4805,0 2.724,-1.219879 2.724,-2.715576"
       id="Fill-3"
       fill="#1d1d1b"
       style="fill:#ffffff;fill-opacity:1" />
    <path
       d="m 290.67242,89.677596 v 5.433394 h -2.7255 v -5.31604 c 0,-1.200445 -0.84975,-2.184122 -1.99425,-2.184122 -1.107,0 -1.99575,1.005354 -1.99575,2.243172 v 5.25699 h -2.72549 v -5.31604 c 0,-1.200445 -0.84975,-2.184122 -2.01375,-2.184122 -1.08751,0 -1.9965,1.005354 -1.9965,2.243172 v 5.25699 h -2.72475 v -9.663354 h 2.4105 l 0.15675,1.494202 h 0.0397 c 0.5535,-1.102525 1.71975,-1.751333 2.86499,-1.751333 1.36125,0 2.42775,0.609192 3.14025,1.573434 0.84825,-1.18101 2.112,-1.573434 3.23775,-1.573434 2.64825,0 4.326,1.947919 4.326,4.487091"
       id="Fill-5"
       fill="#1d1d1b"
       style="fill:#ffffff;fill-opacity:1" />
    <path
       d="m 309.4195,89.677596 v 5.433394 h -2.727 v -5.31604 c 0,-1.200445 -0.84825,-2.184122 -1.99425,-2.184122 -1.1055,0 -1.99425,1.005354 -1.99425,2.243172 v 5.25699 h -2.7255 v -5.31604 c 0,-1.200445 -0.84975,-2.184122 -2.01375,-2.184122 -1.0875,0 -1.9965,1.005354 -1.9965,2.243172 v 5.25699 h -2.72475 v -9.663354 h 2.4105 l 0.156,1.494202 h 0.039 c 0.555,-1.102525 1.7205,-1.751333 2.86575,-1.751333 1.362,0 2.427,0.609192 3.13875,1.573434 0.8505,-1.18101 2.1135,-1.573434 3.2385,-1.573434 2.6475,0 4.3275,1.947919 4.3275,4.487091"
       id="Fill-7"
       fill="#1d1d1b"
       style="fill:#ffffff;fill-opacity:1" />
    <path
       d="m 319.57382,92.080204 2.568,0.274323 c -0.672,1.752829 -2.706,3.013071 -4.998,3.013071 -3.02175,0 -5.46975,-2.166182 -5.46975,-5.079838 0,-2.795556 2.271,-5.097031 5.39025,-5.097031 3.339,0 5.394,2.577293 5.394,5.846 h -8.07825 c 0.2955,1.357414 1.34175,2.164687 2.823,2.164687 0.98925,0 1.995,-0.374485 2.37075,-1.121212 m -5.19375,-2.756687 h 5.35275 c -0.336,-1.338727 -1.32375,-1.988283 -2.6685,-1.988283 -1.4595,0 -2.38875,0.769899 -2.68425,1.988283"
       id="Fill-9"
       fill="#1d1d1b"
       style="fill:#ffffff;fill-opacity:1" />
    <path
       d="m 324.74695,85.446366 h 2.40825 l 0.1575,2.164686 h 0.0412 c 0.59175,-1.613798 2.0145,-2.34109 3.3975,-2.362767 v 2.421818 c -2.11425,0 -3.27975,1.338727 -3.27975,3.267212 v 4.173152 h -2.72475 z"
       id="Fill-11"
       fill="#1d1d1b"
       style="fill:#ffffff;fill-opacity:1" />
    <path
       d="m 337.56572,95.36685 c -3.021,0 -5.48925,-2.302969 -5.48925,-5.096282 0,-2.798546 2.46825,-5.081334 5.48925,-5.081334 2.60775,0 4.72125,1.733394 5.11426,3.877899 h -2.76301 c -0.35625,-0.866323 -1.284,-1.515879 -2.4105,-1.515879 -1.50075,0 -2.70675,1.241556 -2.70675,2.719314 0,1.47402 1.206,2.696141 2.70675,2.696141 1.1265,0 2.01525,-0.611434 2.4105,-1.517374 h 2.76301 c -0.37351,2.204303 -2.54776,3.917515 -5.11426,3.917515"
       id="Fill-13"
       fill="#1d1d1b"
       style="fill:#ffffff;fill-opacity:1" />
    <path
       d="m 344.72957,82.493018 c 0,-0.846889 0.73125,-1.574929 1.599,-1.574929 0.86925,0 1.6215,0.72804 1.6215,1.574929 0,0.867071 -0.75225,1.574929 -1.6215,1.574929 -0.86775,0 -1.599,-0.707858 -1.599,-1.574929 z m 0.237,12.618121 h 2.72475 v -9.664848 h -2.72475 z"
       id="Fill-15"
       fill="#1d1d1b"
       style="fill:#ffffff;fill-opacity:1" />
    <path
       d="m 349.90487,90.268848 c 0,-3.051939 2.54775,-5.078343 4.9785,-5.078343 1.3995,0 2.8635,0.708606 3.37575,1.849253 h 0.06 l 0.0975,-1.593617 h 2.4105 v 9.665596 h -2.4105 l -0.0975,-1.595111 h -0.06 c -0.53475,1.180263 -2.05425,1.848505 -3.37575,1.848505 -2.45025,0 -4.9785,-2.045091 -4.9785,-5.096283 m 8.157,0 c 0,-1.497191 -1.20525,-2.697636 -2.7045,-2.697636 -1.5045,0 -2.727,1.200445 -2.727,2.697636 0,1.495697 1.2225,2.715576 2.727,2.715576 1.49925,0 2.7045,-1.219879 2.7045,-2.715576"
       id="Fill-17"
       fill="#1d1d1b"
       style="fill:#ffffff;fill-opacity:1" />
    <g
       id="Clip-20"
       transform="translate(154,55)" />
    <polygon
       id="Fill-19"
       fill="#1d1d1b"
       mask="url(#mask-2)"
       points="209.84925,40.110242 212.574,40.110242 212.574,25.938869 209.84925,25.938869 "
       transform="translate(154,55)"
       style="fill:#ffffff;fill-opacity:1" />
    <path
       d="m 93.0666,47.239432 h 5.907 c 2.013,0 3.67275,1.476263 3.67275,3.404748 0,1.120464 -0.59325,2.163939 -1.6215,2.695394 1.3845,0.491838 2.292,1.713959 2.292,3.288889 0,2.204303 -1.7175,3.798666 -4.24725,3.798666 h -6.003 z m 5.2725,5.27493 c 0.90975,0 1.6215,-0.729536 1.6215,-1.615293 0,-0.866324 -0.7335,-1.534566 -1.67925,-1.534566 h -2.49 v 3.149859 z m 0.297,5.786202 c 1.10625,0 1.956,-0.846889 1.956,-1.870182 0,-1.083091 -0.86925,-1.909051 -2.016,-1.909051 h -2.78475 v 3.779233 z"
       id="Fill-21"
       fill="#1d1d1b"
       mask="url(#mask-2)"
       transform="translate(154,55)"
       style="fill:#ffffff;fill-opacity:1" />
    <path
       d="m 104.95897,55.58424 c 0,-3.050444 2.54776,-5.078343 4.97775,-5.078343 1.39951,0 2.86425,0.707859 3.37576,1.849253 h 0.06 l 0.0975,-1.592869 h 2.4105 v 9.664848 h -2.4105 l -0.0975,-1.595111 h -0.06 c -0.53475,1.180263 -2.052,1.848505 -3.37576,1.848505 -2.4495,0 -4.97775,-2.045091 -4.97775,-5.096283 m 8.15625,0 c 0,-1.495697 -1.20375,-2.695394 -2.70449,-2.695394 -1.50226,0 -2.72701,1.199697 -2.72701,2.695394 0,1.495697 1.22475,2.716324 2.72701,2.716324 1.50074,0 2.70449,-1.220627 2.70449,-2.716324"
       id="Fill-22"
       fill="#1d1d1b"
       mask="url(#mask-2)"
       transform="translate(154,55)"
       style="fill:#ffffff;fill-opacity:1" />
    <path
       d="m 118.70685,50.762131 h 2.409 l 0.1575,1.592869 h 0.0413 c 0.59175,-1.141394 1.85475,-1.849253 3.15975,-1.849253 2.62725,0 4.3065,2.007718 4.3065,4.586505 v 5.334728 h -2.7255 v -5.058909 c 0,-1.339475 -0.98925,-2.441253 -2.31225,-2.441253 -1.263,0 -2.31075,1.121212 -2.31075,2.498808 v 5.001354 h -2.7255 z"
       id="Fill-23"
       fill="#1d1d1b"
       mask="url(#mask-2)"
       transform="translate(154,55)"
       style="fill:#ffffff;fill-opacity:1" />
    <polygon
       id="Fill-24"
       fill="#1d1d1b"
       mask="url(#mask-2)"
       points="138.16327,60.426083 134.35178,55.879194 134.31203,55.879194 134.31203,60.426083 131.58652,60.426083 131.58652,46.254709 134.31203,46.254709 134.31203,54.502345 134.35178,54.502345 138.00577,50.761234 141.40328,50.761234 136.99703,55.19077 141.60053,60.426083 "
       transform="translate(154,55)"
       style="fill:#ffffff;fill-opacity:1" />
    <polygon
       id="Fill-25"
       fill="#1d1d1b"
       mask="url(#mask-2)"
       points="95.91015,6.6790606 95.91015,12.01304 102.2694,12.01304 102.2694,6.6790606 105.13365,6.6790606 105.13365,19.868253 102.2694,19.868253 102.2694,14.395242 95.91015,14.395242 95.91015,19.868253 93.06615,19.868253 93.06615,6.6790606 "
       transform="translate(154,55)"
       style="fill:#ffffff;fill-opacity:1" />
    <path
       d="m 107.46788,15.025364 c 0,-3.051192 2.547,-5.0783438 4.97775,-5.0783438 1.39949,0 2.862,0.7078588 3.3765,1.8492528 h 0.0592 l 0.0975,-1.593616 h 2.4105 v 9.664848 h -2.4105 l -0.0975,-1.595111 h -0.0592 c -0.5355,1.180263 -2.0565,1.849252 -3.3765,1.849252 -2.45026,0 -4.97775,-2.04509 -4.97775,-5.096282 m 8.15625,0 c 0,-1.495697 -1.20375,-2.696142 -2.70451,-2.696142 -1.50224,0 -2.72699,1.200445 -2.72699,2.696142 0,1.495697 1.22475,2.715575 2.72699,2.715575 1.50076,0 2.70451,-1.219878 2.70451,-2.715575"
       id="Fill-26"
       fill="#1d1d1b"
       mask="url(#mask-2)"
       transform="translate(154,55)"
       style="fill:#ffffff;fill-opacity:1" />
    <path
       d="m 137.41073,14.434485 v 5.433394 h -2.72551 v -5.316041 c 0,-1.200444 -0.84975,-2.184121 -1.99425,-2.184121 -1.1085,0 -1.99575,1.005354 -1.99575,2.243919 v 5.256243 h -2.7255 v -5.316041 c 0,-1.200444 -0.84975,-2.184121 -2.01524,-2.184121 -1.086,0 -1.99501,1.005354 -1.99501,2.243919 v 5.256243 h -2.72475 v -9.666344 h 2.40901 l 0.1575,1.497192 h 0.039 c 0.55499,-1.10103 1.72125,-1.7513331 2.8665,-1.7513331 1.36124,0 2.42624,0.6091921 3.14024,1.5734341 0.84825,-1.18101 2.11125,-1.5734341 3.23625,-1.5734341 2.6475,0 4.32751,1.9486671 4.32751,4.4870911"
       id="Fill-27"
       fill="#1d1d1b"
       mask="url(#mask-2)"
       transform="translate(154,55)"
       style="fill:#ffffff;fill-opacity:1" />
    <path
       d="m 143.0841,11.796422 h 0.0405 c 0.4935,-1.121212 1.85625,-1.8492523 3.23925,-1.8492523 2.44725,0 4.87725,2.0271513 4.87725,5.0783433 0,3.049697 -2.43,5.096283 -4.9365,5.096283 -1.32375,0 -2.86575,-0.668242 -3.3975,-1.848505 h -0.0413 l -0.11775,1.594363 H 140.3593 V 5.6940384 h 2.72475 z m 5.4315,3.229091 c 0,-1.495697 -1.2255,-2.696141 -2.72625,-2.696141 -1.50075,0 -2.70525,1.200444 -2.70525,2.696141 0,1.495697 1.2045,2.716323 2.70525,2.716323 1.50075,0 2.72625,-1.220626 2.72625,-2.716323 z"
       id="Fill-28"
       fill="#1d1d1b"
       mask="url(#mask-2)"
       transform="translate(154,55)"
       style="fill:#ffffff;fill-opacity:1" />
    <path
       d="m 163.2711,19.867505 h -2.409 l -0.1575,-1.614545 h -0.0412 c -0.5715,1.162323 -1.7775,1.868686 -3.04125,1.868686 -2.5275,0 -4.14675,-2.006969 -4.14675,-4.604444 v -5.314545 h 2.7255 V 15.281 c 0,1.398525 0.92775,2.421818 2.172,2.421818 1.164,0 2.17275,-1.044222 2.17275,-2.480869 v -5.019292 h 2.7255 z"
       id="Fill-29"
       fill="#1d1d1b"
       mask="url(#mask-2)"
       transform="translate(154,55)"
       style="fill:#ffffff;fill-opacity:1" />
    <path
       d="m 166.2894,10.202881 h 2.40825 l 0.1575,2.164687 h 0.042 c 0.591,-1.613798 2.01375,-2.341091 3.39675,-2.362768 v 2.421818 c -2.11425,0 -3.27975,1.338728 -3.27975,3.267212 v 4.173899 h -2.72475 z"
       id="Fill-30"
       fill="#1d1d1b"
       mask="url(#mask-2)"
       transform="translate(154,55)"
       style="fill:#ffffff;fill-opacity:1" />
    <path
       d="m 173.63707,20.634713 h 2.88225 c 0.43575,1.023293 1.3845,1.535313 2.49075,1.535313 1.53975,0 2.80275,-1.003858 2.80275,-2.717818 v -1.729656 l -0.0375,-0.03962 c -0.49425,1.160829 -1.97475,1.868687 -3.4575,1.868687 -2.349,0 -4.7985,-1.811131 -4.7985,-4.742727 0,-2.833677 2.48775,-4.8623233 4.938,-4.8623233 1.34325,0 2.844,0.6488083 3.3765,1.8492523 h 0.039 l 0.1185,-1.593616 h 2.40975 v 8.956242 c 0,3.463799 -2.40975,5.236809 -5.391,5.236809 -2.56875,0 -4.68075,-1.239313 -5.373,-3.760546 m 8.07825,-5.846 c 0,-1.376848 -1.18425,-2.559353 -2.62649,-2.559353 -1.44151,0 -2.64751,1.142889 -2.64751,2.579535 0,1.396283 1.206,2.57804 2.685,2.57804 1.40475,0 2.589,-1.161575 2.589,-2.598222"
       id="Fill-31"
       fill="#1d1d1b"
       mask="url(#mask-2)"
       transform="translate(154,55)"
       style="fill:#ffffff;fill-opacity:1" />
    <path
       d="m 39.844425,20.068277 c 11.12175,0 20.136,8.984646 20.136,20.066707 0,11.082808 -9.01425,20.066707 -20.136,20.066707 v 13.514343 h 7.5e-4 c 18.579,0 33.6945,-15.063858 33.6945,-33.580303 0,-7.621252 -2.84475,-14.765616 -7.92975,-20.294687 h -25.7655 z"
       id="Fill-32"
       fill="#1d1d1b"
       mask="url(#mask-2)"
       transform="translate(154,55)"
       style="fill:#ffffff;fill-opacity:1" />
    <path
       d="M 7.05795,60.429671 C 3.05145,54.505933 0.6747,48.500721 0.06945,39.631186 -1.23555,20.495832 15.94695,7.4747475e-5 39.8457,7.4747475e-5 V 20.068277 c -11.12175,0 -20.13675,8.983899 -20.13675,20.067454 0,11.082061 9.015,20.06596 20.13675,20.06596 v 0.22798 H 7.05795"
       id="Fill-33"
       fill="#1d1d1b"
       mask="url(#mask-2)"
       transform="translate(154,55)"
       style="fill:#ffffff;fill-opacity:1" />
  </g>
</svg>
