<?xml version="1.0" encoding="UTF-8" standalone="no"?>
<!-- Created with Inkscape (http://www.inkscape.org/) -->
<svg
   xmlns:svg="http://www.w3.org/2000/svg"
   xmlns="http://www.w3.org/2000/svg"
   version="1.0"
   width="415.41986"
   height="282.38748"
   id="svg4673">
  <defs
     id="defs4675" />
  <g
     transform="translate(157.70173,-68.311287)"
     id="layer1">
    <path
       d="M -157.70173,68.311287 L 257.71813,68.311287 L 257.71813,350.69878 L -157.70173,350.69878 L -157.70173,68.311287 z"
       id="path1135"
       style="fill:#ffd400;fill-opacity:1;fill-rule:nonzero;stroke:none" />
    <path
       d="M 226.69269,87.111677 C 215.94021,87.111677 207.17167,95.886338 207.17167,106.63882 C 207.17167,117.3913 215.94021,126.15983 226.69269,126.15983 C 237.45742,126.15983 246.21983,117.3913 246.21983,106.63882 C 246.21983,95.886338 237.45742,87.111677 226.69269,87.111677 z M 226.69269,91.942945 C 234.7693,91.942945 241.44367,98.519348 241.44367,106.63882 C 241.44367,114.75829 234.7693,121.33469 226.69269,121.33469 C 218.62833,121.33469 211.99682,114.75829 211.99682,106.63882 C 211.99682,98.519348 218.62833,91.942945 226.69269,91.942945 z M 219.78563,116.234 L 223.6433,116.234 L 223.6433,109.00853 L 227.6173,109.00853 C 230.48912,109.00853 230.63608,109.93314 230.63608,112.48655 C 230.63608,114.43375 230.81978,115.35837 231.10145,116.234 L 235.36325,116.234 L 235.36325,115.76251 C 234.57947,115.44409 234.57947,114.75829 234.57947,112.06404 C 234.57947,108.5799 233.69772,108.0288 232.17302,107.33075 C 234.0345,106.73067 235.09383,104.9243 235.09383,102.88525 C 235.09383,101.30544 234.16921,97.643719 229.19711,97.643719 L 219.78563,97.643719 L 219.78563,116.234 z M 223.6433,105.84891 L 223.6433,100.84007 L 228.46232,100.84007 C 230.73405,100.84007 231.19942,102.27904 231.19942,103.29551 C 231.19942,105.10187 230.17071,105.84891 228.18065,105.84891 L 223.6433,105.84891 z M 52.277178,90.791769 C 121.1947,90.791769 181.76006,114.77666 215.13806,150.51824 L 193.23509,151.9021 C 161.64508,124.95355 110.20341,107.36749 52.277178,107.36749 C -43.392951,107.36749 -121.43416,155.38013 -121.43416,214.24322 C -121.43416,273.10631 -43.392951,321.12507 52.277178,321.12507 C 112.61598,321.12507 165.91913,302.02656 197.07438,273.16754 L 218.31604,274.38608 C 185.67896,312.09324 123.43582,337.66405 52.277178,337.66405 C -52.510515,337.66405 -137.99151,282.21775 -137.99151,214.23097 C -137.99151,146.23807 -52.510515,90.791769 52.277178,90.791769 z M 52.277178,121.84905 C 99.769339,121.84905 142.51596,134.016 171.724,153.24923 L -86.911102,169.45143 C -59.668629,141.10676 -7.443173,121.84905 52.277178,121.84905 z M 176.45118,271.96738 C 147.22476,293.08045 102.40235,306.63127 52.277178,306.63127 C -9.1331983,306.63127 -62.613927,286.27136 -89.16447,256.60407 L 176.45118,271.96738 z M 161.45526,166.56736 C 176.46342,199.79228 168.12964,239.4895 160.27347,258.4533 L 181.68046,259.69633 C 185.80142,251.95038 189.13861,243.38391 191.09806,234.6215 L 217.14037,235.1236 C 214.01138,246.4578 210.41089,253.32199 206.03274,261.09856 L 207.8636,261.23939 L 227.38462,262.4518 C 237.14513,247.62122 242.54586,231.32105 242.54586,214.23097 C 242.54586,195.80602 236.2695,178.30569 225.05165,162.59947 L 161.45526,166.56736 z M 190.22243,185.73935 L 213.50314,185.05354 C 217.08526,191.50748 220.39183,201.08429 220.72861,212.09395 L 193.82904,212.09395 C 193.59024,204.59905 192.74522,194.41604 190.22243,185.73935 z M 103.14327,170.21684 C 110.78512,198.38392 110.13605,227.14497 103.05754,255.10387 L 148.66373,257.83485 C 150.7334,252.31778 152.58263,246.78233 154.41349,239.3058 L 133.12897,238.12401 C 137.8194,217.50693 135.33335,185.69036 128.12013,168.69826 L 103.14327,170.21684 z M 43.998503,173.92142 C 52.583342,196.15505 50.440194,228.00835 44.182202,251.66258 L 89.947597,254.33846 C 92.041759,248.50297 93.303155,241.04482 94.135921,236.51971 L 73.776015,235.68695 C 78.252132,214.57388 76.274313,187.40488 68.889637,172.35998 L 43.998503,173.92142 z M -21.520594,178.02402 C -33.626319,200.60055 -34.391729,224.03434 -22.359483,247.7743 L 25.738882,250.59713 C 27.208469,245.31274 28.420879,240.35901 29.351617,235.60122 C 29.369987,235.491 29.382234,235.38691 29.388357,235.26444 L -5.6551752,233.77036 C -7.5105291,227.80628 -7.5105291,225.84071 -7.8840492,222.51577 L 31.115122,222.70559 C 32.211189,219.52761 32.578586,208.58531 31.115122,205.16239 L -8.4412676,205.27874 C -8.3065555,202.62123 -6.4512016,194.24459 -6.0286953,193.08729 L 29.725137,191.04211 C 28.751536,186.05164 27.349305,180.58967 25.702142,175.06647 L -21.520594,178.02402 z M -97.743185,182.78181 C -109.43253,203.25805 -110.15507,223.44039 -98.863745,243.30431 L -80.720466,244.36976 C -81.492,242.81444 -86.072213,233.41521 -87.192773,223.79554 L -68.559632,223.7588 C -68.559632,223.7588 -66.343005,236.59319 -62.430229,245.38622 L -41.335528,246.66599 C -52.339063,224.87323 -51.873694,201.05367 -41.947856,179.30378 L -62.852735,180.60804 C -65.014253,186.91502 -66.863483,192.51782 -68.535139,202.84779 L -87.051938,202.80493 C -85.600721,193.19138 -82.93097,187.94373 -80.493905,181.69799 L -97.743185,182.78181"
       id="path1137"
       style="fill:#005aaa;fill-opacity:1;fill-rule:evenodd;stroke:none" />
    <path
       d="M 226.69269,87.111677 C 215.94021,87.111677 207.17167,95.886338 207.17167,106.63882 C 207.17167,117.3913 215.94021,126.15983 226.69269,126.15983 C 237.45742,126.15983 246.21983,117.3913 246.21983,106.63882 C 246.21983,95.886338 237.45742,87.111677 226.69269,87.111677 z M 226.69269,91.942945 C 234.7693,91.942945 241.44367,98.519348 241.44367,106.63882 C 241.44367,114.75829 234.7693,121.33469 226.69269,121.33469 C 218.62833,121.33469 211.99682,114.75829 211.99682,106.63882 C 211.99682,98.519348 218.62833,91.942945 226.69269,91.942945 z M 219.78563,116.234 L 223.6433,116.234 L 223.6433,109.00853 L 227.6173,109.00853 C 230.48912,109.00853 230.63608,109.93314 230.63608,112.48655 C 230.63608,114.43375 230.81978,115.35837 231.10145,116.234 L 235.36325,116.234 L 235.36325,115.76251 C 234.57947,115.44409 234.57947,114.75829 234.57947,112.06404 C 234.57947,108.5799 233.69772,108.0288 232.17302,107.33075 C 234.0345,106.73067 235.09383,104.9243 235.09383,102.88525 C 235.09383,101.30544 234.16921,97.643719 229.19711,97.643719 L 219.78563,97.643719 L 219.78563,116.234 z M 223.6433,105.84891 L 223.6433,100.84007 L 228.46232,100.84007 C 230.73405,100.84007 231.19942,102.27904 231.19942,103.29551 C 231.19942,105.10187 230.17071,105.84891 228.18065,105.84891 L 223.6433,105.84891 z M 52.277178,90.791769 C 121.1947,90.791769 181.76006,114.77666 215.13806,150.51824 L 193.23509,151.9021 C 161.64508,124.95355 110.20341,107.36749 52.277178,107.36749 C -43.392951,107.36749 -121.43416,155.38013 -121.43416,214.24322 C -121.43416,273.10631 -43.392951,321.12507 52.277178,321.12507 C 112.61598,321.12507 165.91913,302.02656 197.07438,273.16754 L 218.31604,274.38608 C 185.67896,312.09324 123.43582,337.66405 52.277178,337.66405 C -52.510515,337.66405 -137.99151,282.21775 -137.99151,214.23097 C -137.99151,146.23807 -52.510515,90.791769 52.277178,90.791769 z M 52.277178,121.84905 C 99.769339,121.84905 142.51596,134.016 171.724,153.24923 L -86.911102,169.45143 C -59.668629,141.10676 -7.443173,121.84905 52.277178,121.84905 z M 176.45118,271.96738 C 147.22476,293.08045 102.40235,306.63127 52.277178,306.63127 C -9.1331983,306.63127 -62.613927,286.27136 -89.16447,256.60407 L 176.45118,271.96738 z M 161.45526,166.56736 C 176.46342,199.79228 168.12964,239.4895 160.27347,258.4533 L 181.68046,259.69633 C 185.80142,251.95038 189.13861,243.38391 191.09806,234.6215 L 217.14037,235.1236 C 214.01138,246.4578 210.41089,253.32199 206.03274,261.09856 L 207.8636,261.23939 L 227.38462,262.4518 C 237.14513,247.62122 242.54586,231.32105 242.54586,214.23097 C 242.54586,195.80602 236.2695,178.30569 225.05165,162.59947 L 161.45526,166.56736 z M 190.22243,185.73935 L 213.50314,185.05354 C 217.08526,191.50748 220.39183,201.08429 220.72861,212.09395 L 193.82904,212.09395 C 193.59024,204.59905 192.74522,194.41604 190.22243,185.73935 z M 103.14327,170.21684 C 110.78512,198.38392 110.13605,227.14497 103.05754,255.10387 L 148.66373,257.83485 C 150.7334,252.31778 152.58263,246.78233 154.41349,239.3058 L 133.12897,238.12401 C 137.8194,217.50693 135.33335,185.69036 128.12013,168.69826 L 103.14327,170.21684 z M 43.998503,173.92142 C 52.583342,196.15505 50.440194,228.00835 44.182202,251.66258 L 89.947597,254.33846 C 92.041759,248.50297 93.303155,241.04482 94.135921,236.51971 L 73.776015,235.68695 C 78.252132,214.57388 76.274313,187.40488 68.889637,172.35998 L 43.998503,173.92142 z M -21.520594,178.02402 C -33.626319,200.60055 -34.391729,224.03434 -22.359483,247.7743 L 25.738882,250.59713 C 27.208469,245.31274 28.420879,240.35901 29.351617,235.60122 C 29.369987,235.491 29.382234,235.38691 29.388357,235.26444 L -5.6551752,233.77036 C -7.5105291,227.80628 -7.5105291,225.84071 -7.8840492,222.51577 L 31.115122,222.70559 C 32.211189,219.52761 32.578586,208.58531 31.115122,205.16239 L -8.4412676,205.27874 C -8.3065555,202.62123 -6.4512016,194.24459 -6.0286953,193.08729 L 29.725137,191.04211 C 28.751536,186.05164 27.349305,180.58967 25.702142,175.06647 L -21.520594,178.02402 z M -97.743185,182.78181 C -109.43253,203.25805 -110.15507,223.44039 -98.863745,243.30431 L -80.720466,244.36976 C -81.492,242.81444 -86.072213,233.41521 -87.192773,223.79554 L -68.559632,223.7588 C -68.559632,223.7588 -66.343005,236.59319 -62.430229,245.38622 L -41.335528,246.66599 C -52.339063,224.87323 -51.873694,201.05367 -41.947856,179.30378 L -62.852735,180.60804 C -65.014253,186.91502 -66.863483,192.51782 -68.535139,202.84779 L -87.051938,202.80493 C -85.600721,193.19138 -82.93097,187.94373 -80.493905,181.69799 L -97.743185,182.78181 z"
       id="path1147"
       style="fill:none;stroke:none" />
  </g>
</svg>
