<?xml version="1.0" encoding="UTF-8" standalone="no"?>
<!-- Created with Inkscape (http://www.inkscape.org/) -->

<svg
   version="1.0"
   width="415.41986"
   height="282.38748"
   id="svg4673"
   sodipodi:docname="logo_Hella.svg"
   inkscape:version="1.4 (86a8ad7, 2024-10-11)"
   xmlns:inkscape="http://www.inkscape.org/namespaces/inkscape"
   xmlns:sodipodi="http://sodipodi.sourceforge.net/DTD/sodipodi-0.dtd"
   xmlns="http://www.w3.org/2000/svg"
   xmlns:svg="http://www.w3.org/2000/svg">
  <sodipodi:namedview
     id="namedview1"
     pagecolor="#ffffff"
     bordercolor="#000000"
     borderopacity="0.25"
     inkscape:showpageshadow="2"
     inkscape:pageopacity="0.0"
     inkscape:pagecheckerboard="0"
     inkscape:deskcolor="#d1d1d1"
     inkscape:zoom="6.2786069"
     inkscape:cx="207.68938"
     inkscape:cy="141.19374"
     inkscape:window-width="3925"
     inkscape:window-height="1960"
     inkscape:window-x="3326"
     inkscape:window-y="59"
     inkscape:window-maximized="0"
     inkscape:current-layer="svg4673" />
  <defs
     id="defs4675" />
  <path
     d="m 380.28846,15.917556 c -10.75248,0 -19.52102,8.774661 -19.52102,19.527143 0,10.75248 8.76854,19.52101 19.52102,19.52101 10.76473,0 19.52714,-8.76853 19.52714,-19.52101 0,-10.752482 -8.76241,-19.527143 -19.52714,-19.527143 z m 0,4.831268 c 8.07661,0 14.75098,6.576403 14.75098,14.695875 0,8.11947 -6.67437,14.69587 -14.75098,14.69587 -8.06436,0 -14.69587,-6.5764 -14.69587,-14.69587 0,-8.119472 6.63151,-14.695875 14.69587,-14.695875 z m -6.90706,24.291055 h 3.85767 v -7.22547 h 3.974 c 2.87182,0 3.01878,0.92461 3.01878,3.47802 0,1.9472 0.1837,2.87182 0.46537,3.74745 h 4.2618 v -0.47149 c -0.78378,-0.31842 -0.78378,-1.00422 -0.78378,-3.69847 0,-3.48414 -0.88175,-4.03524 -2.40645,-4.73329 1.86148,-0.60008 2.92081,-2.40645 2.92081,-4.4455 0,-1.57981 -0.92462,-5.241531 -5.89672,-5.241531 h -9.41148 z m 3.85767,-10.38509 v -5.00884 h 4.81902 c 2.27173,0 2.7371,1.43897 2.7371,2.45544 0,1.80636 -1.02871,2.5534 -3.01877,2.5534 z M 205.87295,19.597648 c 68.91752,0 129.48288,23.984891 162.86088,59.726471 l -21.90297,1.38386 c -31.59001,-26.94855 -83.03168,-44.53461 -140.95791,-44.53461 -95.67013,0 -173.711339,48.01264 -173.711339,106.875731 0,58.86309 78.041209,106.88185 173.711339,106.88185 60.3388,0 113.64195,-19.09851 144.7972,-47.95753 l 21.24166,1.21854 c -32.63708,37.70716 -94.88022,63.27797 -166.03886,63.27797 -104.7877,0 -190.268689,-55.4463 -190.268689,-123.43308 0,-67.992901 85.480989,-123.439202 190.268689,-123.439202 z m 0,31.057281 c 47.49216,0 90.23878,12.16695 119.44682,31.40018 L 66.684669,98.257306 C 93.927142,69.912639 146.1526,50.654929 205.87295,50.654929 Z m 124.174,150.118331 c -29.22642,21.11307 -74.04883,34.66389 -124.174,34.66389 -61.41038,0 -114.891106,-20.35991 -141.441649,-50.0272 z M 315.05103,95.373236 c 15.00816,33.224924 6.67438,72.922144 -1.18179,91.885944 l 21.40699,1.24303 c 4.12096,-7.74595 7.45815,-16.31242 9.4176,-25.07483 l 26.04231,0.5021 c -3.12899,11.3342 -6.72948,18.19839 -11.10763,25.97496 l 1.83086,0.14083 19.52102,1.21241 c 9.76051,-14.83058 15.16124,-31.13075 15.16124,-48.22083 0,-18.42495 -6.27636,-35.92528 -17.49421,-51.631504 z m 28.76717,19.171994 23.28071,-0.68581 c 3.58212,6.45394 6.88869,16.03075 7.22547,27.04041 h -26.89957 c -0.2388,-7.4949 -1.08382,-17.67791 -3.60661,-26.3546 z M 256.73904,99.022716 c 7.64185,28.167084 6.99278,56.928134 -0.0857,84.887034 l 45.60619,2.73098 c 2.06967,-5.51707 3.9189,-11.05252 5.74976,-18.52905 l -21.28452,-1.18179 c 4.69043,-20.61708 2.20438,-52.43365 -5.00884,-69.425754 z m -59.14477,3.704584 c 8.58484,22.23363 6.44169,54.08693 0.1837,77.74116 l 45.7654,2.67588 c 2.09416,-5.83549 3.35555,-13.29364 4.18832,-17.81875 l -20.35991,-0.83276 c 4.47612,-21.11307 2.4983,-48.28207 -4.88637,-63.32697 z m -65.51909,4.1026 c -12.10573,22.57653 -12.87114,46.01032 -0.83889,69.75028 l 48.09836,2.82283 c 1.46959,-5.28439 2.682,-10.23812 3.61274,-14.99591 0.0184,-0.11022 0.0306,-0.21431 0.0367,-0.33678 l -35.04354,-1.49408 c -1.85535,-5.96408 -1.85535,-7.92965 -2.22887,-11.25459 l 38.99917,0.18982 c 1.09607,-3.17798 1.46347,-14.12028 0,-17.5432 l -39.55639,0.11635 c 0.13471,-2.65751 1.99007,-11.03415 2.41257,-12.19145 l 35.75384,-2.04518 c -0.9736,-4.99047 -2.37584,-10.45244 -4.023,-15.97564 z m -76.222594,4.75779 c -11.689345,20.47624 -12.411885,40.65858 -1.12056,60.5225 l 18.143279,1.06545 c -0.771534,-1.55532 -5.351747,-10.95455 -6.472307,-20.57422 l 18.633141,-0.0367 c 0,0 2.216627,12.83439 6.129403,21.62742 l 21.094698,1.27977 c -11.00353,-21.79276 -10.53816,-45.61232 -0.61233,-67.36221 l -20.904874,1.30426 c -2.161518,6.30698 -4.010748,11.90978 -5.682404,22.23975 l -18.516799,-0.0429 c 1.451217,-9.61355 4.120968,-14.8612 6.558033,-21.10694 l -17.24928,1.08382"
     id="path1137"
     style="fill:#ffffff;fill-opacity:1;fill-rule:evenodd;stroke:none" />
  <path
     d="m 384.39442,18.80039 c -10.75248,0 -19.52102,8.774661 -19.52102,19.527143 0,10.75248 8.76854,19.52101 19.52102,19.52101 10.76473,0 19.52714,-8.76853 19.52714,-19.52101 0,-10.752482 -8.76241,-19.527143 -19.52714,-19.527143 z m 0,4.831268 c 8.07661,0 14.75098,6.576403 14.75098,14.695875 0,8.11947 -6.67437,14.69587 -14.75098,14.69587 -8.06436,0 -14.69587,-6.5764 -14.69587,-14.69587 0,-8.119472 6.63151,-14.695875 14.69587,-14.695875 z m -6.90706,24.291055 h 3.85767 v -7.22547 h 3.974 c 2.87182,0 3.01878,0.92461 3.01878,3.47802 0,1.9472 0.1837,2.87182 0.46537,3.74745 h 4.2618 v -0.47149 c -0.78378,-0.31842 -0.78378,-1.00422 -0.78378,-3.69847 0,-3.48414 -0.88175,-4.03524 -2.40645,-4.73329 1.86148,-0.60008 2.92081,-2.40645 2.92081,-4.4455 0,-1.57981 -0.92462,-5.241531 -5.89672,-5.241531 h -9.41148 z m 3.85767,-10.38509 v -5.00884 h 4.81902 c 2.27173,0 2.7371,1.43897 2.7371,2.45544 0,1.80636 -1.02871,2.5534 -3.01877,2.5534 z M 209.97891,22.480482 c 68.91752,0 129.48288,23.984891 162.86088,59.726471 l -21.90297,1.38386 c -31.59001,-26.94855 -83.03168,-44.53461 -140.95791,-44.53461 -95.67013,0 -173.71134,48.01264 -173.71134,106.875727 0,58.86309 78.04121,106.88185 173.71134,106.88185 60.3388,0 113.64195,-19.09851 144.7972,-47.95753 l 21.24166,1.21854 c -32.63708,37.70716 -94.88022,63.27797 -166.03886,63.27797 -104.7877,0 -190.26869,-55.4463 -190.26869,-123.43308 0,-67.992897 85.48099,-123.439198 190.26869,-123.439198 z m 0,31.057281 c 47.49216,0 90.23878,12.16695 119.44682,31.40018 L 70.790628,101.14014 C 98.033101,72.795473 150.25856,53.537763 209.97891,53.537763 Z m 124.174,150.118327 c -29.22642,21.11307 -74.04883,34.66389 -124.174,34.66389 -61.41038,0 -114.891107,-20.35991 -141.44165,-50.0272 z M 319.15699,98.256073 c 15.00816,33.224917 6.67438,72.922137 -1.18179,91.885937 l 21.40699,1.24303 c 4.12096,-7.74595 7.45815,-16.31242 9.4176,-25.07483 l 26.04231,0.5021 c -3.12899,11.3342 -6.72948,18.19839 -11.10763,25.97496 l 1.83086,0.14083 19.52102,1.21241 c 9.76051,-14.83058 15.16124,-31.13075 15.16124,-48.22083 0,-18.42495 -6.27636,-35.92528 -17.49421,-51.631497 z m 28.76717,19.171987 23.28071,-0.68581 c 3.58212,6.45394 6.88869,16.03075 7.22547,27.04041 h -26.89957 c -0.2388,-7.4949 -1.08382,-17.67791 -3.60661,-26.3546 z M 260.845,101.90555 c 7.64185,28.16708 6.99278,56.92813 -0.0857,84.88703 l 45.60619,2.73098 c 2.06967,-5.51707 3.9189,-11.05252 5.74976,-18.52905 l -21.28452,-1.18179 c 4.69043,-20.61708 2.20438,-52.43365 -5.00884,-69.42575 z m -59.14477,3.70458 c 8.58484,22.23363 6.44169,54.08693 0.1837,77.74116 l 45.7654,2.67588 c 2.09416,-5.83549 3.35555,-13.29364 4.18832,-17.81875 l -20.35991,-0.83276 c 4.47612,-21.11307 2.4983,-48.28207 -4.88637,-63.32697 z m -65.51909,4.1026 c -12.10573,22.57653 -12.87114,46.01032 -0.83889,69.75028 l 48.09836,2.82283 c 1.46959,-5.28439 2.682,-10.23812 3.61274,-14.99591 0.0184,-0.11022 0.0306,-0.21431 0.0367,-0.33678 l -35.04354,-1.49408 c -1.85535,-5.96408 -1.85535,-7.92965 -2.22887,-11.25459 l 38.99917,0.18982 c 1.09607,-3.17798 1.46347,-14.12028 0,-17.5432 l -39.55639,0.11635 c 0.13471,-2.65751 1.99007,-11.03415 2.41257,-12.19145 l 35.75384,-2.04518 c -0.9736,-4.99047 -2.37584,-10.45244 -4.023,-15.97564 z m -76.222595,4.75779 C 48.2692,134.94676 47.54666,155.1291 58.837985,174.99302 l 18.143279,1.06545 c -0.771534,-1.55532 -5.351747,-10.95455 -6.472307,-20.57422 l 18.633141,-0.0367 c 0,0 2.216627,12.83439 6.129403,21.62742 l 21.094699,1.27977 c -11.00353,-21.79276 -10.53816,-45.61232 -0.61233,-67.36221 l -20.904875,1.30426 c -2.161518,6.30698 -4.010748,11.90978 -5.682404,22.23975 l -18.516799,-0.0429 c 1.451217,-9.61355 4.120968,-14.8612 6.558033,-21.10694 z"
     id="path1147"
     style="fill:none;stroke:none" />
</svg>
