<?xml version="1.0" encoding="UTF-8"?>
<svg width="600" height="135" version="1.1" xmlns="http://www.w3.org/2000/svg">
 <path d="m546.31 75.05c1.3914-6.9978 6.8751-11.602 13.873-11.602 6.9978 0 12.277 4.7266 13.279 11.602zm14.65 38.529c11.213 0 20.707-4.6652 25.597-12.829l-13.32-7.3252c-2.7828 3.8877-7.1615 5.6678-12.052 5.6678-8.0004 0-13.443-4.8903-14.875-11.663h43.133c0.32738-1.8415 0.55247-4.2151 0.55247-6.6704 0-18.436-12.707-31.695-30.14-31.695s-30.528 12.993-30.528 32.145 11.888 32.37 31.654 32.37m-59.932-1.6574h17.044v-88.844h-17.044zm-8.5938-1.4323-4.9517-14.323c-2.0462 0.94121-4.3788 1.4528-6.6704 1.4528-5.3404 0-8.8803-2.7828-8.8803-9.269v-22.037h14.835l5.5041-15.551h-16.165l-4.1741 11.765v-27.255h-17.044v56.289c0 13.443 7.8777 22.037 22.16 22.037 5.6064 0 11.111-1.1049 15.387-3.1102zm-68.014-32.165v33.598h17.044v-36.585c0-17.822-10.435-26.272-24.042-26.272-6.609 0-12.543 2.2303-17.597 6.7113v-32.697h-17.044v88.844h17.044v-41.7c3.4989-3.0488 7.8776-4.7675 13.054-4.7675 7.3866 0 11.54 4.3378 11.54 12.891m-67.461 35.235c5.8929 0 11.499-1.4528 16.165-4.1128l-6.1589-15.039c-2.66 2.0052-5.9952 3.0488-9.5555 3.0488-9.003 0-15.714-6.7114-15.714-16.165s6.4454-16.165 15.551-16.165c3.6626 0 6.875 1.1049 9.4941 3.0488l6.2817-15.039c-4.7266-2.66-10.272-4.1741-16.165-4.1741-18.436 0-32.37 14.057-32.37 32.309s14.057 32.268 32.472 32.268m-84.69-38.508c1.3914-6.9978 6.875-11.602 13.873-11.602s12.277 4.7266 13.279 11.602zm14.671 38.529c11.213 0 20.707-4.6652 25.597-12.829l-13.32-7.3252c-2.7828 3.8877-7.1615 5.6678-12.052 5.6678-8.0004 0-13.443-4.8903-14.875-11.663h43.133c0.32739-1.8415 0.55246-4.2151 0.55246-6.6704 0-18.436-12.707-31.695-30.14-31.695s-30.528 12.993-30.528 32.145 11.888 32.37 31.654 32.37m-86.695-21.812v-20.932c3.6012-3.5603 8.2255-5.5041 13.709-5.5041 9.3306 0 15.101 5.6678 15.101 15.939 0 10.272-5.7701 16.001-15.101 16.001-5.5041 0-10.108-1.9438-13.709-5.5041zm18.538 21.771c16.778 0 27.48-13.668 27.48-32.268s-10.722-32.206-27.48-32.206c-7.1003 0-13.321 2.4349-18.538 7.3866v-33.373h-17.044v88.844h12.768l2.5577-7.4889c5.545 6.0975 12.379 9.1053 20.257 9.1053z" fill="#075033"/>
 <path d="m67.74 9.76c-3.3557 0-6.6295 0.30692-9.801 0.83892l-11.356 33.004h57.353c0.65477 0 1.1049 0.57292 0.87984 1.1868l-27.398 79.615c27.296-4.6038 48.084-28.319 48.084-56.924-0.0205-31.879-25.884-57.722-57.763-57.722z" fill="#23a96a"/>
 <path d="m46.56 43.62-16.042 46.57c-0.20468 0.61384 0.24553 1.2482 0.9003 1.2482h57.333l16.062-46.632c0.20461-0.61384-0.24554-1.1868-0.87984-1.1868h-57.353z" fill="#fff"/>
 <path d="m30.52 90.19 27.398-79.595c-27.132 4.7266-47.921 28.4-47.921 56.903 0 31.879 25.843 57.742 57.742 57.742 3.2943 0 6.5272-0.28645 9.6578-0.81844l11.356-32.984h-57.333c-0.65477 0-1.1049-0.6343-0.9003-1.2481z" fill="#075033"/>
</svg>
