<?xml version="1.0" encoding="UTF-8"?>
<svg width="6e3" height="5417.8" version="1.1" viewBox="0 0 6e3 5417.8" xmlns="http://www.w3.org/2000/svg">
 <g stroke="#fff" stroke-width=".13333">
  <path d="m5641 936.75c0-93 0.013-164.11-0.013-235.2 0-14.36 2.0934-26.227-20.213-29.8-102.29-16.387-204.47-32.947-305.73-56.04-278.96-63.613-540.79-167.17-780.43-324.21-21.507-14.093-35.36-14.253-55.653-0.42666-205.72 140.2-432.21 234.27-670.73 302.12-126.81 36.08-256.25 58.533-385.92 80.213-25.427 4.2533-38.507 11.16-37.32 42 5.68 149.01-3.2667 298.16 6.1466 447.37 7.84 124.25 11.72 248.52 29 372.2 18.92 135.28 49 267.56 92.307 396.85 89.333 266.71 251.72 483.04 462.93 664.8 159.87 137.57 339.71 245.15 524.93 344.35 13.68 7.32 24.44 8.3734 39.227 0.4134 213.92-115.19 415.89-246.39 592-416.12 168.92-162.81 293.39-353.61 373.55-572.77 81.507-222.88 113.61-456.09 127.45-691.56 6.7733-115.07 13.133-230.56 8.4667-324.19zm109.77 1034.4c-24.493 87.693-57.48 168.39-96.373 246.41-131.11 263.13-324.03 473.85-554.93 652.43-157.23 121.6-329.87 217.99-504.53 311.03-54.16 28.853-110.52 27.68-165.05-2.52-189.67-105.04-379.77-209-548.67-347.29-169.19-138.53-322.59-290.52-437.61-478.48-117.71-192.33-190.85-401.2-230.67-621.87-6.2134-34.44-17.947-39.24-47.613-39.213-873.72 0.6134-1747.4 0.4934-2621.2 0.5334-10.831 0-21.963-1.12-32.449 0.9066-180.83 34.853-277.57 163.01-277.93 335.76-1.8693 903.84-0.87734 1807.7-0.46134 2711.5 0.0213 46.68 0.892 93.253 4.42 140.13 12.315 163.61 157.99 302.89 334.39 303 1616.1 0.92 3232.2 0.52 4848.3 0.8267 30.147 0 59.587-3.64 88.253-11.36 160.09-43.133 254.37-170.04 254.41-343.8 0.2533-938.8 0.1333-1877.6 0.1067-2816.4 0-13.067 2.84-26.827-12.387-41.64zm-2758.1 3446.6c-808.56-0.026-1617.1-0.026-2425.7-0.04-255.04 0-460.67-145.36-540.32-383.43-16.723-49.987-25.956-101.99-25.958-155.09-0.040105-958-2.1266-1916 1.2563-2874 1.0104-286.09 216.07-522.77 498.65-553.17 39.652-4.2666 78.92-4.8133 118.39-4.8133 835.08-0.2133 1670.2-0.16 2505.2-0.16 47.533 0 51.52-5.0533 40.787-50.893-1.6133-6.92-3.6533-13.893-4-20.92-12.88-258.53-7.4133-517.27-6.6666-775.91 0.2933-104.28 39.093-138.09 141.63-152.05 276.81-37.72 548.41-96.88 802.08-218.76 112.43-54.013 219.96-117.56 318.93-194.33 57.947-44.947 116.85-45.973 177.03-0.81333 236.71 177.67 504.65 284.29 790.88 350.29 126.93 29.267 255.61 47.48 384.48 64.92 60.28 8.16 103.05 56.867 103.07 118.55 0.053 221.69 3.8267 443.49-1.6133 665.07-2.9467 119.88-9.1733 240.57-32.107 359.08-2.9066 15.053 3.7067 22.04 10.787 31.453 61.547 81.827 112.16 169.29 134.8 270.35 8.8933 39.693 15.627 79.987 15.6 120.92-0.4933 835.07-0.84 1670.1-1.8133 2505.2-0.1467 130.04 6.0133 260.25-3 390.11-17.947 258.41-223.11 470.53-476.4 501.61-38.373 4.7068-76.387 6.813-114.75 6.8266-803.76 0.067-1607.5 0.054-2411.3 0.026" fill="#fff"/>
  <path d="m1373.2 3159.9c138.53 0 277.08-0.7867 415.61 0.6667 27.427 0.28 33.827-7.4267 33.653-34.24-1.2266-187.93-1.1333-375.87-0.04-563.79 0.1467-25.533-7.1066-32.093-32.227-32.013-278.28 0.84-556.56 0.8266-834.84-0.04-24.337-0.08-29.715 7.6133-29.613 30.547 0.83866 189.13 0.95333 378.27-0.10134 567.4-0.14133 25.24 6.428 32.28 31.941 32.04 138.53-1.28 277.07-0.6133 415.61-0.5733zm8.8266-862.37c174.71 0.04 349.41-0.1867 524.12 0.1333 74.84 0.1333 119.93 30.48 142.97 91.307 5.48 14.44 5 28.067 5.0134 42.133 0.2266 277.12-2.0534 554.27 1.6933 831.33 0.9733 72.453-68.947 136.17-137.03 135.81-333.73-1.7734-667.48-0.4267-1001.2-1.2267-46.329-0.1067-93.481 8.1467-138.87-11.72-48.344-21.173-83.705-69.707-83.744-122.55-0.20533-273.51-0.78666-547 0.368-820.51 0.40934-96.64 77.896-147.08 148.15-145.83 179.47 3.2267 359.03 1.08 538.55 1.1067" fill="#fffdfd"/>
  <g fill="#fff">
   <path d="m2021.7 4490.6c404.84 0.013 809.68-0.013 1214.5 0.027 77.133 0 120.13 39.787 120.68 111.36 0.5867 78.547-42.347 123.35-121.05 123.36-808.47 0.1187-1616.9-0.053-2425.4-0.3466-66.851-0.027-115.63-37.667-122.63-92.733-9.08-71.413 19.209-119.49 80.136-138.31 14.411-4.4534 28.592-3.2134 42.865-3.2267 403.64-0.16 807.27-0.1333 1210.9-0.1333"/>
   <path d="m1704.3 4237.6c-297.57 0.012-595.15 0.027-892.72 0-80.005-0.013-124.01-42.747-123.96-120.16 0.052-75.16 45.995-118.45 125.98-118.47 593.94-0.027 1187.9-0.027 1781.8 0 83.053 0 129.01 43.12 128.83 120.65-0.1867 74.16-47.267 117.93-127.23 117.95-297.57 0.067-595.15 0.027-892.71 0.027"/>
   <path d="m3782.2 1635c-6.6533-49.48 19.773-81.853 63.64-102.89 51.04-24.493 99.507-15.787 139.72 20.987 102.07 93.347 202.63 188.37 302.39 284.19 17.413 16.733 24.653 17.56 41.56-0.52 155.97-166.88 313.41-332.39 469.83-498.85 99.653-106.08 198.33-213.07 297.35-319.76 47.92-51.627 126.71-56.293 173.89-11.467 45.173 42.92 50.187 126.77 1.9867 176.91-210.59 219.11-418.31 440.99-625.47 663.33-76.893 82.533-156.01 162.96-230.03 248.28-62.24 71.72-141.69 70.44-209.89 4.96-131.91-126.65-264.59-252.51-397.97-377.6-26.173-24.56-29.16-53.32-27-87.56"/>
  </g>
 </g>
</svg>
